<svg xmlns="http://www.w3.org/2000/svg" width="192" height="192" viewBox="0 0 16 16"><path d="M4 3.871a1.5 1.5 0 01-1.5 1.5 1.5 1.5 0 01-1.5-1.5 1.5 1.5 0 011.5-1.5 1.5 1.5 0 011.5 1.5z" fill="#fff"/><path d="M2.5 7.508v4.986" fill="none" stroke="#fff" stroke-width="1.986" stroke-linecap="round"/><path d="M14 13.5c.55 0 1-.45 1-1H15v-3h0A3 3 0 00 10 7.27a3 3 0 00-5 2.221H5v3h0c0 .55.45 1 1 1s1-.45 1-1H7v-3h0a 1 1 0 112 0h0V12.5H9a1 1 0 00 .9 1h.2a 1 1 0 00.9-1h0v-3h0a1 1 0 112 0H13V12.5h0c0 .55.45 1 1 1z" fill="red" fill-rule="evenodd"/></svg>